#!OML:ASF Y:\EmotionMaleHayes\Project 1\Capture day 1\Session 1\Male1.ASF
:FULLY-SPECIFIED
:DEGREES
1001
root 20.4399 16.7225 -15.6926 -113.668 81.8273 -110.375
lowerback 7.39746 3.53523 11.0407
upperback 2.04254 5.72056 2.88979
thorax -1.23408 2.91352 -3.57547
lowerneck -20.3033 -2.73334 3.40657
upperneck 25.4027 -6.39824 6.19802
head 11.8622 -1.50807 0.754336
rclavicle -5.35228e-014 -6.55989e-014
rhumerus -15.3661 18.0462 -83.0995
rradius 44.6817
rwrist -1.12637
rhand -8.68691 -31.8508
rfingers 7.12502
rthumb 17.2478 -61.1054
lclavicle -5.35228e-014 -6.55989e-014
lhumerus -50.0264 1.59943 79.8034
lradius 25.5531
lwrist -10.8772
lhand -11.3232 -21.8194
lfingers 7.12502
lthumb 14.7091 7.63877
rfemur 19.5114 -2.08178 34.2844
rtibia 5.55749
rfoot -17.8784 12.9716
rtoes 33.3528
lfemur -23.6753 3.07392 0.782723
ltibia 20.1005
lfoot -7.00664 3.99654
ltoes -14.5011
1002
root 20.5489 16.6995 -15.7337 -107.929 81.8355 -104.815
lowerback 7.24491 3.67692 11.2624
upperback 2.029 5.90366 2.90755
thorax -1.1167 3.00995 -3.67271
lowerneck -20.1755 -2.57766 3.40353
upperneck 25.2154 -6.14766 6.15848
head 11.7572 -1.4181 0.779102
rclavicle -1.83379e-014 -2.34566e-014
rhumerus -14.8777 18.3234 -82.9722
rradius 44.8356
rwrist -1.0026
rhand -8.12747 -32.0513
rfingers 7.12502
rthumb 17.7862 -61.2579
lclavicle -1.83379e-014 -2.34566e-014
lhumerus -50.2747 1.87856 79.4862
lradius 25.4638
lwrist -11.0051
lhand -11.0427 -21.9227
lfingers 7.12502
lthumb 14.9793 7.51558
rfemur 19.6386 -1.91096 34.2872
rtibia 5.82995
rfoot -18.1395 13.6723
rtoes 33.3728
lfemur -23.6874 2.97525 1.20833
ltibia 18.0737
lfoot -6.94644 4.2744
ltoes -14.1626
1003
root 20.6644 16.6727 -15.7779 -103.527 81.7585 -100.659
lowerback 6.95147 3.80056 11.5355
upperback 2.00166 6.04352 2.8859
thorax -0.930463 3.08785 -3.82321
lowerneck -20.9234 -2.80538 1.6778
upperneck 25.8668 -6.56583 8.23385
head 12.3292 -1.42913 1.78643
rclavicle -1.47101e-014 -5.24792e-014
rhumerus -14.517 18.5216 -82.8467
rradius 45.1077
rwrist -1.01623
rhand -7.84268 -32.2758
rfingers 7.12502
rthumb 18.0602 -61.4573
lclavicle -1.47101e-014 -5.24792e-014
lhumerus -50.524 2.04099 79.2242
lradius 25.4032
lwrist -11.2161
lhand -10.8928 -22.0115
lfingers 7.12502
lthumb 15.1238 7.41591
rfemur 19.9291 -1.95444 34.1669
rtibia 5.70645
rfoot -18.1869 14.4683
rtoes 33.2239
lfemur -23.7367 2.66914 1.54909
ltibia 15.9826
lfoot -7.10749 4.43511
ltoes -14.7267
1004
root 20.7771 16.6508 -15.8258 -101.061 82.1483 -98.6358
lowerback 6.38848 3.79139 11.1827
upperback 1.85291 5.92193 2.72505
thorax -0.809059 3.0228 -3.75416
lowerneck -20.2617 -2.55314 2.91458
upperneck 25.3769 -6.15879 6.84727
head 11.8842 -1.36466 1.11704
rclavicle -4.74101e-014 -3.29983e-014
rhumerus -14.3536 19.3502 -82.9555
rradius 45.3245
rwrist -1.40916
rhand -7.77003 -32.4248
rfingers 7.12502
rthumb 18.1301 -61.5998
lclavicle -4.74101e-014 -3.29983e-014
lhumerus -51.1447 2.37173 78.8707
lradius 25.4991
lwrist -11.3038
lhand -10.8445 -22.002
lfingers 7.12502
lthumb 15.1703 7.42189
rfemur 20.0338 -2.19336 33.3016
rtibia 5.61578
rfoot -18.1317 15.313
rtoes 33.0381
lfemur -24.0332 1.9531 1.18529
ltibia 13.9463
lfoot -6.92515 4.8788
ltoes -13.3774
1005
root 20.885 16.6353 -15.8741 -98.0984 83.0056 -96.1846
lowerback 5.772 3.94851 10.4337
upperback 1.91081 5.9741 2.41704
thorax -0.439648 3.06166 -3.61273
lowerneck -20.6483 -2.53079 1.98885
upperneck 25.2956 -6.2042 8.15056
head 12.0208 -1.29206 1.75082
rclavicle -3.19049e-014 -1.51076e-014
rhumerus -13.765 19.6876 -82.7545
rradius 45.4977
rwrist -1.65101
rhand -7.76051 -32.3373
rfingers 7.12502
rthumb 18.1393 -61.5115
lclavicle -3.19049e-014 -1.51076e-014
lhumerus -51.1225 2.34625 78.8241
lradius 25.5253
lwrist -11.2523
lhand -10.8946 -22.2539
lfingers 7.12502
lthumb 15.122 7.17364
rfemur 19.9632 -2.29674 31.9006
rtibia 5.75201
rfoot -18.1992 16.0456
rtoes 32.929
lfemur -24.4348 1.17439 0.298044
ltibia 12.251
lfoot -7.48677 5.5275
ltoes -11.4619
